General
Complete name                    : Le.Gendarme.a.New.York.1965.720p.HDDVD.x264-(Y)(°U°).mkv
Format                           : Matroska
File size                        : 2.03 GiB
Duration                         : 1h 41mn
Overall bit rate                 : 2 855 Kbps
Movie name                       : Gendarme.a.New.York.HDDVD.720p.TripleRus
Encoded date                     : UTC 2010-01-11 09:46:37
Writing application              : mkvmerge v3.0.0 ('Hang up your Hang-Ups') built on Dec 12 2009 15:20:35
Writing library                  : libebml v0.7.9 + libmatroska v0.8.1

Video
ID                               : 1
Format                           : AVC
Format/Info                      : Advanced Video Codec
Format profile                   : High@L4.1
Format settings, CABAC           : Yes
Format settings, ReFrames        : 4 frames
Muxing mode                      : Container profile=Unknown@4.1
Codec ID                         : V_MPEG4/ISO/AVC
Duration                         : 1h 41mn
Bit rate                         : 2 044 Kbps
Nominal bit rate                 : 2 100 Kbps
Width                            : 1 280 pixels
Height                           : 720 pixels
Display aspect ratio             : 16:9
Frame rate                       : 23.976 fps
Resolution                       : 8 bits
Colorimetry                      : 4:2:0
Scan type                        : Progressive
Bits/(Pixel*Frame)               : 0.093
Stream size                      : 1.45 GiB (72%)
Writing library                  : x264 core 80 r1376kGIT 3feaec2

Audio
ID                               : 2
Format                           : DTS
Format/Info                      : Digital Theater Systems
Codec ID                         : A_DTS
Duration                         : 1h 41mn
Bit rate mode                    : Constant
Bit rate                         : 755 Kbps
Channel(s)                       : 5 channels
Channel positions                : Front: L C R, Surround: L R
Sampling rate                    : 48.0 KHz
Resolution                       : 24 bits
Stream size                      : 550 MiB (26%)

Text #1
ID                               : 3
Format                           : UTF-8
Codec ID                         : S_TEXT/UTF8
Codec ID/Info                    : UTF-8 Plain Text
Title                            : Slovenian
Language                         : Slovenian

Text #2
ID                               : 4
Format                           : UTF-8
Codec ID                         : S_TEXT/UTF8
Codec ID/Info                    : UTF-8 Plain Text
Title                            : Croatian
Language                         : Croatian

Text #3
ID                               : 5
Format                           : UTF-8
Codec ID                         : S_TEXT/UTF8
Codec ID/Info                    : UTF-8 Plain Text
Title                            : English
Language                         : English

Text #4
ID                               : 6
Format                           : UTF-8
Codec ID                         : S_TEXT/UTF8
Codec ID/Info                    : UTF-8 Plain Text
Title                            : Dutch
Language                         : Dutch

Source                           : Gendarme.a.New.York.HDDVD.720p.TripleRus.mkv
Source                           : Gendarme.a.New.York.HDDVD.French.dts